<?xml version="1.0" standalone="no"?><!DOCTYPE svg PUBLIC "-//W3C//DTD SVG 1.1//EN" "http://www.w3.org/Graphics/SVG/1.1/DTD/svg11.dtd"><svg t="1782743182031" class="icon" viewBox="0 0 1365 1024" version="1.1" xmlns="http://www.w3.org/2000/svg" p-id="6625" width="266.6015625" height="200" xmlns:xlink="http://www.w3.org/1999/xlink"><path d="M91.32030124 733.15227204c-8.38468735 52.94481646 29.68917462 83.35468707 49.13039905 92.583117 19.44122361 9.21085125 52.13622959 0 64.95056241 0 96.02839627 9.21085125 302.20029162 108.12203311 559.15491467 108.12203311 0 0 415.80664866 6.13470849 447.67549072-297.03237149 7.57610047-78.71410574 4.02535327-228.61895032-58.53460748-235.79075858-52.69872491-6.94329456-84.14569528 3.35739002-151.04741227 16.94515403-44.41950549 8.99991541-155.74072715 24.69703381-175.44562097 37.05434005-215.04876499 97.82134853-332.3289158 168.39685849-364.44384859 178.90847892-24.25758508 0-45.29840378-6.06439627-51.16944287-57.6557092 0-21.18144232 80.82346097-71.71807763 115.46962069-79.89182913C652.61972683 463.27784906 746.31025418 448.82876626 757.31405772 448.82876626c15.87289774 0 363.77588618-83.70624655 374.44570805-91.61632863 10.6698219-7.91008208 21.93729401-15.64438486 21.93729483-43.29451649 0-12.65613135-27.86106665-40.92149102-59.58928508-75.3567149-37.63441241-40.83360178-82.35274384-88.24135996-115.85633589-99.52641073C916.5176428 107.39446713 795.51096545 81.13299475 689.79711267 93.06842929 458.38326602 119.18927804 313.98032322 372.4701073 301.41208194 390.04806723c-53.43699875 74.74148684-96.02839627 169.39880255-118.38756198 211.18161401C161.4387846 641.58867777 99.7753 695.8694191 91.32030124 733.15227204z" p-id="6626" fill="#b06b07"></path></svg>